PathFileType	4	(X/Y/Z)	C:/Users/beibeiliu/ov580/test_trc/User2\sequence.37_training_dense_right.trc
DataRate	CameraRate	NumFrames	NumMarkers	Units	OrigDataRate	OrigDataStartFrame	OrigNumFrames
120	120	23	19	mm	120	30	88
Frame#	Time	ThumbCMC			ThumbMCP			ThumbIP			ThumbTip			IndexMCP			IndexPIP			IndexTip			MiddleMCP			MiddlePIP			MiddleTip			RingMCP			RingPIP			RingTip			PinkyMCP			PinkyPIP			PinkyTip			BackHand1			BackHand2			BackHand3	
		X0	Y0	Z0	X1	Y1	Z1	X2	Y2	Z2	X3	Y3	Z3	X4	Y4	Z4	X5	Y5	Z5	X6	Y6	Z6	X7	Y7	Z7	X8	Y8	Z8	X9	Y9	Z9	X10	Y10	Z10	X11	Y11	Z11	X12	Y12	Z12	X13	Y13	Z13	X14	Y14	Z14	X15	Y15	Z15	X16	Y16	Z16	X17	Y17	Z17	X18	Y18	Z18	
29	0.241667	57.8861	38.7662	33.6466	33.0222	10.375	19.2431	23.9768	-20.6975	-3.08018	40.7962	-42.3162	-16.4632	69.5631	29.6921	-51.8012	62.3456	24.5192	-72.9149	56.3045	15.1602	-98.1047	85.9575	18.332	-57.1298	76.1742	9.36998	-84.5825	65.4419	4.25796	-114.201	88.4998	-17.6468	-39.6501	61.8928	-38.7976	-36.8161	48.3214	-35.8013	-3.43338	95.6686	-31.8665	-18.1488	66.4797	-46.9981	-4.82814	59.3798	-35.3913	22.2186	118.348	17.8393	3.0827	129.45	29.7489	36.1168	95.6341	50.8318	17.7584	
30	0.25	58.2197	56.4398	36.3659	26.6946	33.2542	28.9022	11.8377	4.10928	16.2476	16.8672	-21.003	5.43645	57.1058	41.1114	-43.8048	47.6887	28.6206	-66.6964	38.3098	21.2871	-88.3394	69.6218	20.8808	-50.0997	54.4709	12.1813	-76.9579	41.3741	3.35946	-102.162	65.2673	-13.3318	-31.3896	36.6806	-25.1758	-22.2055	31.7864	-19.4377	15.7552	72.4151	-24.7916	-8.64184	44.276	-28.7878	7.93962	43.0191	-14.407	33.6775	110.412	17.8997	5.46603	124.537	30.9011	32.4084	98.7539	56.5085	16.4376	
31	0.258333	70.9613	74.1398	39.3801	30.9676	60.7127	34.9219	7.08467	38.5316	26.6309	1.4706	10.0944	16.447	57.3961	52.0907	-37.894	39.4587	47.3241	-61.6261	25.7911	38.352	-82.5868	59.9744	31.813	-47.1508	40.9634	26.0227	-69.0117	20.9298	23.8311	-94.7972	45.7976	3.06974	-23.1685	18.0316	-1.99205	-8.58748	15.9124	11.436	22.4454	53.9395	-12.5019	-0.0602285	27.7322	-5.8699	17.8399	33.6877	14.0152	42.1695	102.487	21.3845	5.16515	126.574	31.9811	30.5424	105.74	57.1353	14.3107	
32	0.266667	89.6526	90.0376	39.3263	45.1474	89.8148	36.1346	12.4694	75.3622	28.6684	0.44646	49.1085	22.1948	62.9343	68.3352	-36.9143	41.0195	70.7455	-60.8639	24.7811	66.7322	-76.9968	58.9746	47.776	-41.5931	35.5778	50.8225	-65.8428	14.9816	46.4767	-88.3689	38.3453	24.7346	-18.77	9.50737	31.3245	-5.54621	13.6647	42.7012	30.0622	42.0418	10.105	3.31351	17.0081	20.9428	24.6782	33.2713	41.6233	47.5667	99.3936	22.0252	5.73816	122.251	23.4712	28.9536	111.342	57.711	9.36645	
33	0.275	103.993	94.1842	36.5724	66.4561	109.731	37.7304	29.8122	103.595	31.6295	6.86301	82.8838	22.7807	69.1233	82.991	-40.9767	51.0329	85.2898	-58.6668	30.2954	83.6115	-76.2735	59.7195	57.8515	-39.9994	38.7265	66.7801	-63.8482	19.1105	70.9702	-84.7691	33.0431	44.2287	-17.3243	9.11058	56.965	-3.20743	14.6641	67.4801	29.0861	34.1227	30.2838	5.05307	15.4149	48.3825	25.3828	34.4462	63.6607	51.9494	96.516	27.7428	4.6905	119.08	25.6295	26.0623	119.467	62.1114	10.7693	
34	0.283333	112.895	95.9314	33.291	78.8694	119.031	32.8519	46.7804	116.825	29.0507	17.414	105.845	21.2776	75.6809	85.5588	-39.2797	58.2271	96.5408	-62.8527	40.0555	98.2282	-77.7367	65.0622	72.4625	-44.7542	45.3113	78.8896	-63.7874	22.384	85.9791	-87.5136	38.9747	59.2689	-18.2148	15.5766	73.7326	-5.53445	24.378	89.8994	29.4531	35.469	44.9393	5.00645	20.3309	65.9354	25.5522	40.9588	78.3732	46.7841	94.4451	31.4675	8.02979	119.345	26.3884	29.411	121.594	61.4577	7.98154	
35	0.291667	120.744	96.4311	34.4284	86.2103	122.492	29.3477	53.3458	130.088	24.1805	28.2631	120.49	18.142	84.6133	92.9239	-45.4112	66.4542	97.5343	-61.2775	50.3948	106.138	-81.1746	69.7876	74.7164	-48.5093	50.6515	84.0603	-68.366	29.2979	90.522	-89.0005	42.902	62.1728	-19.6841	21.698	86.0032	-6.47751	30.0248	95.0534	28.9726	37.0829	53.5327	1.34436	26.5838	73.5808	19.9029	48.2534	82.5836	44.1863	99.2287	35.9246	3.50266	121.739	26.1993	30.1902	125.753	58.798	8.00198	
36	0.3	118.391	100.799	33.7122	88.3598	122.48	32.8168	52.6515	133.895	19.1129	29.6907	135.166	14.3429	91.3725	93.975	-44.8766	78.3764	105.41	-64.9128	60.5408	109.065	-83.8412	77.9365	80.5809	-49.4591	56.3903	87.6395	-68.3194	34.1485	99.6125	-91.179	49.9082	65.3848	-23.1743	26.7305	84.8297	-6.25199	37.6016	93.6923	26.3287	44.2889	49.7352	-1.7643	30.6252	75.209	22.064	49.6738	83.4661	40.093	103.581	39.6045	3.42486	124.264	31.9279	25.8373	131.8	63.7486	12.5179	
37	0.308333	118.538	104.534	42.8388	87.4681	128.085	37.432	53.6115	141.247	21.6085	31.7688	145.849	15.5269	99.1098	103.638	-39.7866	87.1196	111.67	-62.0837	76.2473	123.151	-85.5338	79.8483	84.963	-46.7251	53.6361	92.3654	-63.5522	25.2434	103.044	-78.0631	55.4451	68.5725	-23.1101	32.1714	85.4161	-2.01975	44.2594	92.7065	28.2551	48.9507	52.6907	-3.30935	37.0116	73.6182	22.0052	59.4431	81.5007	42.8681	112.12	43.7493	3.48735	129.226	34.9434	27.3895	133.144	73.3942	12.6814	
38	0.316667	120.099	110.497	48.3973	89.326	130.712	40.4074	59.1132	146.484	23.9334	39.3265	154.595	20.3141	104.3	113.025	-38.8696	95.3666	122.944	-60.2518	84.4613	129.188	-84.4894	80.6952	90.5011	-39.7363	52.7335	102.639	-50.9278	19.5594	112.722	-57.9168	59.5169	77.0062	-19.9564	38.346	84.2587	-0.0522008	54.0781	91.3452	33.2026	59.4193	56.2139	-4.73018	43.8391	70.2306	20.5869	65.3709	78.6861	42.6474	118.525	52.347	5.41049	136.681	45.5934	30.038	139.343	80.6206	17.8085	
39	0.325	120.91	115.712	51.7108	89.5854	131.156	36.9496	63.4288	144.439	21.8932	43.9552	155.845	18.6353	112.915	118.151	-31.3056	104.006	127.238	-55.5269	95.1987	133.597	-81.7757	85.1646	99.7028	-38.0684	52.3833	104.742	-45.7101	19.3308	109.587	-45.9021	65.6315	75.9652	-20.1937	46.963	84.7734	2.66565	65.642	87.2402	34.712	68.5839	60.6792	-8.09339	53.4658	70.3768	21.3884	78.3401	73.756	43.0146	126.161	54.2655	3.2472	143.05	45.8288	33.5991	144.847	87.1928	21.1529	
40	0.333333	116.754	111.861	49.0595	86.243	121.748	36.8984	59.5005	136.427	21.0036	40.1689	144.804	10.532	119.837	120.023	-32.4877	110.671	124.749	-57.312	103.875	131.864	-86.181	95.3496	93.3775	-40.6455	64.8394	98.1102	-48.1822	28.6391	97.48	-50.9225	81.9228	68.4026	-25.9447	57.4609	73.6445	-4.21066	72.5128	74.0915	28.2431	80.456	50.4477	-15.1314	64.8091	58.2036	14.915	86.8932	62.6506	37.4963	138.159	59.5376	1.14232	154.155	49.6658	31.5331	147.18	86.9667	24.39	
41	0.341667	105.457	98.6183	48.508	73.9528	103.96	34.8924	48.2424	111.081	11.0886	25.382	117.3	-0.44173	116.733	121.412	-30.8627	110.533	126.47	-56.7241	106.491	134.217	-80.7854	99.4579	91.376	-45.8684	71.7818	82.6231	-58.6484	38.5319	71.9897	-65.0577	90.9888	60.0253	-34.4087	67.8655	56.2101	-16.604	84.4174	57.4605	20.0239	99.3609	41.0636	-25.1322	78.2689	44.6952	4.77473	95.5956	47.9313	27.8961	149.333	62.0454	1.48428	157.64	54.2654	30.2855	143.754	92.0164	29.4782	
42	0.35	86.9023	76.455	43.8105	57.9508	73.0759	26.7287	30.9512	76.5545	0.966798	9.61502	77.3628	-12.5895	99.9661	106.714	-34.9338	95.2861	111.947	-56.2406	92.6161	120.071	-81.925	95.0159	76.4956	-50.317	74.3503	64.2903	-66.1692	46.2354	46.0426	-78.8904	94.4066	47.9554	-38.9476	73.2099	30.4361	-22.574	82.9847	38.0024	10.0806	106.986	27.3943	-31.4585	85.853	18.2529	-6.2066	100.853	31.3782	22.1488	144.013	61.6628	2.54351	152.856	53.3192	31.2175	125.497	85.0764	28.0331	
43	0.358333	69.7182	52.1578	40.1971	47.5275	42.1213	18.2193	23.3429	38.925	-6.2942	5.89859	34.3596	-21.2841	83.6458	84.044	-34.822	76.1421	93.0975	-64.1642	74.7629	97.6724	-86.6514	87.6891	58.8997	-49.8156	66.6287	41.7443	-72.31	49.7549	18.42	-86.7732	94.9662	28.4659	-44.0322	76.9498	5.64112	-25.3356	88.9715	14.3798	5.49454	108.633	10.7895	-35.5828	91.2019	-0.368062	-9.31147	104.052	14.4808	16.3941	133.161	53.9408	2.01658	142.567	48.8976	31.7498	111.48	67.5443	28.3764	
44	0.366667	69.134	28.1271	28.52	47.956	14.5785	9.97696	26.6576	5.69678	-16.0103	10.2704	-2.60592	-33.6327	76.3672	61.6771	-48.3339	71.1669	63.4347	-70.7256	74.3087	66.1969	-99.1192	86.7141	35.509	-59.2048	76.0824	12.3598	-81.626	62.1456	-14.6106	-95.3159	99.5777	3.06584	-48.2761	86.0842	-17.4837	-28.2693	94.5712	-1.91361	1.2152	114.662	-3.40091	-35.9899	101.52	-19.437	-9.51678	106.359	2.68076	11.0748	130.87	42.8935	-5.86821	138.649	36.7871	31.9548	102.319	52.6492	23.3388	
45	0.375	75.1944	18.0854	21.2115	56.3534	1.4171	-3.08729	38.3315	-10.3012	-30.1639	25.8169	-21.6532	-48.8811	89.2794	49.0731	-52.1373	82.4348	50.5581	-79.497	85.1526	55.0804	-108.345	101.647	27.6797	-64.9102	93.6177	5.79979	-86.8714	87.029	-26.4131	-103.249	116.471	-0.533687	-50.7534	102.107	-26.0094	-33.6746	103.242	-8.76558	-2.60148	131.623	-14.1231	-38.8023	114.04	-25.7117	-16.8273	117.68	-6.72879	11.7795	136.542	36.7797	-5.09268	146.085	34.7438	31.3456	104.103	47.596	15.4286	
46	0.383333	80.5108	25.9743	15.793	68.6717	9.11401	-10.1066	54.1864	-4.0087	-43.0891	48.009	-14.8224	-57.9743	100.514	61.5096	-55.2854	102.458	63.6658	-81.9794	106.178	70.22	-111.257	121.455	39.566	-66.1294	114.572	19.6192	-93.0637	110.322	-6.49781	-113.182	131.97	10.5768	-53.5019	115.555	-15.9259	-39.9669	113.277	-1.11159	-7.14066	146.472	-5.74234	-40.4236	126.275	-19.4337	-15.0499	123.542	0.88897	6.38163	152.334	43.1568	-6.93953	153.409	42.268	29.1682	117.842	54.4037	14.5952	
47	0.391667	90.9765	41.0606	17.1171	73.3437	27.1192	-14.9091	63.3636	17.2665	-46.4539	61.4973	8.59684	-68.5623	113.231	83.6089	-49.5681	118.539	89.9136	-77.7568	117.197	99.3374	-101.908	138.082	60.7478	-64.9792	131.19	47.215	-96.0241	125.069	30.0345	-122.469	143.473	28.6535	-53.1362	125.422	0.147432	-42.7208	119.749	10.9717	-10.8292	153.518	12.4909	-39.82	130.594	-1.94097	-22.1754	127.566	10.9779	5.74439	162.209	55.928	1.63469	157.223	50.135	37.7109	125.572	66.507	21.8549	
48	0.4	90.9723	51.2912	16.6883	75.7876	39.116	-14.5721	69.822	31.9574	-50.7031	64.3779	23.4102	-68.073	123.982	98.9581	-48.7959	121.179	106.886	-68.841	127.726	114.595	-94.8462	146.037	74.9329	-60.568	139.777	67.9437	-90.6353	135.557	54.7641	-121.098	144.815	40.2571	-52.8292	127.768	14.1496	-47.8492	123.665	20.6399	-7.5034	157.115	22.6511	-37.7848	134.433	2.15117	-21.5052	129.49	16.9687	6.12169	165.079	59.807	7.18723	162.039	53.3585	38.9785	129.951	74.1259	24.8203	
49	0.408333	92.8773	48.1853	16.323	77.8137	35.9457	-17.358	67.3041	25.878	-45.5583	60.9949	17.8195	-66.9132	124.963	85.1165	-48.7472	125.274	92.3493	-78.399	128.87	98.827	-104.091	142.737	65.1534	-57.1404	141.786	50.0134	-92.3301	134.784	37.0041	-117.183	145.024	24.5165	-49.7976	121.758	5.7292	-42.734	119.04	16.2515	-4.24358	152.69	13.9804	-33.9155	129.247	-3.80978	-15.4117	124.92	12.5022	10.0494	164.629	52.4766	5.65875	157.6	47.3629	39.2692	131.348	69.7515	24.7538	
50	0.416667	89.3397	45.8036	15.762	69.9305	29.7902	-8.98134	57.515	18.3785	-35.7154	43.6312	10.5037	-54.6382	121.976	60.278	-58.696	120.164	58.3458	-84.2394	123.11	57.0349	-108.967	134.586	32.2161	-64.9048	124.566	16.0927	-86.6999	116.719	-8.4631	-108.76	133.552	-2.86646	-43.3551	108.176	-14.6727	-30.0549	111.239	6.64607	3.28682	138.416	-11.6052	-25.8837	111.809	-12.223	-6.53248	118.945	5.5725	18.9268	160.392	34.5855	-0.484446	159.253	37.7825	35.6772	134.485	57.5514	19.4956	
51	0.425	93.5255	60.9164	21.2276	67.5627	48.049	-1.57342	45.0321	38.2186	-20.561	24.9365	33.9269	-35.2291	114.71	41.5441	-58.6663	105.916	33.6016	-81.5009	101.734	29.6507	-109.161	114.99	13.723	-57.5787	92.4274	-2.5806	-74.8122	66.4125	-21.7674	-89.9866	106.778	-14.2765	-31.9446	78.9347	-9.04241	-11.9176	96.3737	11.8933	13.1567	108.918	-20.8392	-14.6287	90.934	-12.7042	9.40126	107.202	14.3359	26.906	152.153	17.0412	-3.84178	160.569	24.4339	32.1323	139.963	54.6262	10.8503	
